ply
format ascii 1.0
comment VCGLIB generated
element vertex 564
property float x
property float y
property float z
property float nx
property float ny
property float nz
element face 799
property list uchar int vertex_indices
end_header
-29.2116 -2.84848 -2.17679 -0.5236348 -0.8338558 0.1746171 
-29.5718 -2.81485 -3.15495 0.6844895 0.7222439 0.09918641 
-29.0366 -2.44922 -1.88308 0.7103558 -0.5743988 0.4067687 
-31.2508 -1.35992 -2.9521 0.5564513 0.8295712 -0.04662299 
-28.4607 -1.70401 -2.8177 -0.6623152 -0.7457611 0.07196617 
-29.0871 -2.49744 -1.92416 0.5614198 -0.8040673 0.1956619 
-29.0468 -2.85995 -2.35571 -0.1102641 -0.9591284 -0.2606043 
-28.3581 -2.31915 -2.80053 -0.8676522 0.4964513 -0.02675384 
-28.2021 -2.04532 -2.62988 -0.8548598 -0.1048079 -0.5081634 
-29.2164 -1.0174 -3.03402 0.6503643 0.756843 -0.06492254 
-28.4514 -2.20093 -2.37212 -0.7599746 0.6043726 -0.2391075 
-28.2631 -2.11288 -2.90835 -0.7988933 0.601288 0.01490711 
-28.3079 -1.95663 -3.13968 -0.7396506 0.4152193 0.529632 
-29.0488 -1.68143 -1.83565 0.2708606 0.2364502 0.9331269 
-28.6725 -1.52933 -3.04079 -0.6139104 -0.7755952 -0.1468543 
-31.1133 -1.43256 -3.28172 0.4351951 0.8771017 0.2032185 
-29.4428 -2.92865 -3.14685 0.6387598 0.766306 0.06900036 
-30.996 -1.56598 -2.64623 0.5946862 0.7976363 -0.1006217 
-28.3325 -2.2048 -2.69884 -0.8987576 0.355743 -0.2562842 
-29.0852 -3.06818 -2.86604 -0.04970503 -0.9410595 -0.3345692 
-29.2334 -2.82324 -2.25679 -0.2750978 -0.9209512 0.2759894 
-28.9705 -2.37033 -2.0091 0.7311696 -0.5836681 0.3531611 
-29.2417 -3.09744 -2.63404 -0.3585601 -0.8916502 0.2763958 
-29.0699 -1.18039 -2.93098 0.6220931 0.781156 0.05287247 
-28.7793 -2.13007 -1.84763 0.7716387 0.05126714 0.6339917 
-29.0524 -1.23419 -2.34656 0.6698372 0.6766419 0.3057351 
-30.825 -1.79605 -2.25306 0.7565941 -0.6236857 -0.196422 
-29.3421 -2.8255 -2.18792 -0.05698936 -0.9918087 0.1143144 
-28.409 -1.74387 -2.54206 0.7024586 0.6615188 0.2625737 
-29.3273 -2.99539 -3.25339 0.6424747 0.7467671 0.1719455 
-29.3564 -2.76633 -2.01085 -0.06039117 -0.7869771 0.6140195 
-28.2677 -1.84906 -3.21654 -0.7987608 0.1176614 0.5900314 
-29.0849 -1.25015 -2.30094 0.6418501 0.7017875 0.3090676 
-31.0473 -1.58603 -2.78638 0.5929835 0.8051354 -0.01130279 
-28.4815 -2.10388 -3.08806 0.1504674 0.560459 0.8143988 
-29.9588 -2.40976 -2.35773 -0.6201777 -0.70716 0.339565 
-28.8942 -1.75058 -1.86284 0.3788379 0.1733722 0.9090786 
-28.1712 -1.96741 -2.85061 -0.9534879 0.07846035 0.291041 
-30.8675 -1.70239 -2.52131 0.7832828 0.5673693 0.254087 
-28.5556 -2.3833 -2.50657 -0.7824342 0.4415337 -0.439141 
-28.4481 -2.18683 -2.54459 -0.6195818 0.6304832 -0.467557 
-28.266 -1.92319 -3.08585 -0.7362753 0.409635 0.5386075 
-28.3968 -2.14514 -2.9985 -0.6296799 0.5191402 0.5779245 
-29.1044 -2.33911 -1.89693 0.1624864 0.1488474 0.9754192 
-28.5469 -1.83035 -2.11636 0.8791994 0.1468115 0.4532714 
-29.6437 -2.75174 -2.44523 -0.6281005 -0.7623333 0.1560055 
-28.9449 -2.84729 -2.54271 -0.6685443 -0.5763338 -0.4699873 
-29.7813 -2.39124 -1.87997 -0.09497659 -0.2650205 0.9595539 
-28.3053 -2.13531 -2.6981 -0.9507909 0.2829202 -0.126305 
-28.6875 -1.9899 -1.92253 0.5890249 -0.04534331 0.8068419 
-29.3104 -2.80872 -2.0571 0.2978556 -0.6032372 0.7398561 
-29.5353 -2.34732 -1.86221 -0.09369363 -0.1422169 0.9853913 
-28.3153 -2.02026 -2.514 -0.9434789 -0.04410824 -0.3284843 
-29.0041 -1.9248 -1.80632 0.1640023 0.001134881 0.9864593 
-30.0756 -2.35831 -2.96976 0.6426307 0.7394791 0.2004909 
-30.1645 -2.30945 -2.89623 0.6528736 0.730815 0.1991622 
-28.2815 -1.84399 -2.79046 -0.62645 -0.7775918 0.05395653 
-28.4009 -1.75668 -2.85184 -0.635039 -0.7724766 -0.002308185 
-28.5156 -1.67062 -2.4786 0.6889211 0.6742042 0.2661512 
-29.2141 -2.59448 -1.9608 0.5646852 -0.7377744 0.3698914 
-29.324 -2.4534 -1.88134 -0.08958592 -0.2156089 0.9723617 
-28.2452 -1.96835 -2.60639 -0.679156 0.1852735 -0.7102259 
-29.1719 -1.05972 -3.04743 0.6273195 0.778601 0.01583299 
-29.05 -1.29861 -2.2416 0.6487212 0.6663541 0.3676045 
-28.4306 -2.02612 -2.37714 -0.8547738 0.2525042 -0.4534353 
-30.502 -1.99881 -2.96019 0.6395898 0.7684458 0.02039346 
-28.3606 -1.97888 -2.40766 -0.8410826 0.3194116 -0.4365276 
-29.4882 -2.88141 -2.51101 -0.6162292 -0.7735568 0.1478901 
-28.343 -2.00983 -2.48458 -0.9217736 0.06190589 -0.3827547 
-28.3693 -2.05606 -2.44022 -0.759154 0.1507656 -0.6332101 
-28.5528 -1.94498 -2.10028 0.8358275 -0.1829313 0.5176181 
-28.8461 -2.05264 -1.83157 0.0792741 0.02569421 0.9965217 
-28.5331 -1.63699 -2.52645 0.6600132 0.7059217 0.257016 
-30.3086 -2.17398 -2.92789 0.6740162 0.7164152 0.1801429 
-31.3356 -1.31873 -3.11281 0.5842029 0.8111494 0.02727002 
-29.241 -2.83356 -2.13179 -0.8402129 -0.5410689 -0.03587259 
-28.8496 -1.33652 -2.73861 0.6043129 0.7945479 0.059158 
-28.7188 -2.60114 -2.62568 -0.8190865 0.5306293 -0.2180133 
-30.1937 -2.24948 -3.07629 0.6200199 0.7683848 0.1586197 
-29.0766 -2.47699 -1.8327 0.4537357 -0.7619094 0.4621883 
-28.7432 -2.12292 -1.92658 0.8264185 -0.5535216 0.1031815 
-30.7335 -1.74234 -3.29411 0.6873886 0.7021159 0.1858232 
-28.3656 -2.00922 -2.45156 -0.8286382 0.09364679 -0.5518958 
-28.595 -1.90271 -2.0546 0.8377498 -0.1803571 0.5154091 
-28.4008 -2.01779 -2.41216 -0.8126202 0.3804367 -0.4414932 
-28.6441 -2.50668 -2.50311 -0.7718125 0.6029873 -0.2017716 
-29.9358 -2.53748 -2.76803 0.6583543 0.7347797 0.1633048 
-30.1949 -2.3082 -2.85645 0.6581776 0.7298046 0.1848988 
-28.2405 -1.92645 -2.56308 -0.7392341 0.3080839 -0.5988466 
-30.6818 -1.84219 -2.77682 0.6548623 0.755013 0.03332752 
-28.5045 -1.66214 -2.91799 -0.6643122 -0.7424163 -0.08664513 
-28.6739 -1.50116 -3.08817 -0.6139104 -0.7755951 -0.1468542 
-28.9131 -2.31497 -1.96929 0.6633778 -0.6196371 0.4194994 
-29.1736 -3.09097 -2.64381 -0.2361139 -0.9701427 0.05543775 
-29.7061 -2.71637 -2.94777 0.6989204 0.6486173 0.3013402 
-29.139 -1.50525 -1.85509 0.612667 0.5554119 0.5622782 
-30.0345 -2.3588 -3.09982 0.5971012 0.7334017 0.3249498 
-29.1475 -2.466 -1.86663 0.01399665 -0.3146892 0.9490916 
-29.0057 -2.36548 -1.92717 0.6921412 -0.1167033 0.7122647 
-28.9524 -2.00412 -1.84515 0.05809868 -0.0749115 0.9954963 
-28.3812 -2.05359 -2.39491 -0.8279788 0.2911102 -0.4792765 
-29.1222 -3.11142 -2.74155 0.240885 -0.9701502 0.02798227 
-28.5571 -1.63766 -2.87663 -0.7059299 -0.7079304 0.02230499 
-29.8484 -2.55753 -2.38502 -0.6313758 -0.7118593 0.3076049 
-28.4373 -1.78104 -2.45813 0.769363 0.5632332 0.3014118 
-28.4767 -1.86768 -2.28548 0.8016924 0.3574918 0.4790501 
-28.9988 -1.207 -2.85788 0.6297009 0.7768155 -0.005869429 
-30.6376 -1.77499 -3.19616 0.67765 0.7201441 0.1489396 
-29.9084 -2.52618 -2.81432 0.6583543 0.7347797 0.1633048 
-29.1001 -2.53479 -1.87176 0.3331205 -0.8580449 0.3908833 
-28.8069 -2.19284 -1.84719 0.575977 -0.7271125 0.3735745 
-28.7438 -1.78995 -1.93236 0.513746 0.2687734 0.8147552 
-29.4137 -2.91064 -2.50214 -0.5653968 -0.7891273 0.2400095 
-28.4137 -1.71323 -2.58859 0.7393188 0.6537277 0.1613936 
-28.9918 -2.81573 -2.48511 -0.6265913 -0.6215237 -0.4702041 
-30.1298 -2.297 -2.35732 -0.6525221 -0.7120399 0.2592565 
-31.2604 -1.34912 -2.90359 0.5658668 0.8244835 0.004661593 
-29.0969 -1.13022 -2.92229 0.6220932 0.7811559 0.05287224 
-28.5544 -2.36078 -2.54527 -0.7824342 0.4415336 -0.4391409 
-29.3474 -2.77472 -2.04393 0.4110828 -0.6111106 0.6764281 
-28.2966 -2.05359 -2.74205 -0.7195551 0.6893699 -0.08372354 
-28.5292 -2.49207 -2.89154 -0.7023881 0.7106145 -0.04096376 
-29.2941 -3.05289 -2.60285 -0.5552527 -0.817531 0.1527664 
-30.3429 -2.15936 -2.49334 0.6775392 0.7095296 -0.1936707 
-29.3685 -2.97211 -3.21505 0.6424747 0.746767 0.1719455 
-29.0281 -3.01346 -2.99674 -0.2332976 -0.859488 -0.4548106 
-28.5092 -1.80331 -2.26014 0.7478758 0.5111485 0.4235671 
-28.2753 -1.93506 -2.52894 -0.7230896 0.505302 -0.4709684 
-30.1606 -2.36893 -2.58602 0.6317376 0.7650893 -0.1246838 
-29.5395 -2.83237 -2.48756 -0.5539951 -0.8019583 0.2235005 
-28.5106 -2.23526 -2.51049 -0.752067 0.5239135 -0.3998874 
-29.2622 -2.40909 -1.85892 -0.1454483 -0.0865921 0.9855692 
-31.1353 -1.45679 -3.09016 0.4634356 0.8838424 0.06363982 
-28.9206 -2.82108 -2.55518 -0.6685427 -0.5763364 -0.4699861 
-29.284 -2.80173 -2.08696 0.8890911 -0.134044 0.4376634 
-28.959 -1.25476 -2.80365 0.5907804 0.8066728 0.01605188 
-29.5148 -2.82669 -3.26714 0.6672915 0.7363414 0.1119081 
-30.8322 -1.80435 -2.36509 0.8084261 -0.5201511 -0.2754817 
-31.2778 -1.35703 -3.15194 0.5522756 0.8196826 0.1520266 
-28.2088 -1.90973 -3.08315 -0.7330897 0.4346879 0.5230927 
-29.9178 -2.48502 -2.37669 -0.6171794 -0.6863981 0.3846393 
-28.1547 -1.93051 -2.76768 -0.9874313 0.005150498 -0.1579649 
-28.6555 -1.50958 -2.5764 0.6321753 0.7368441 0.2396148 
-28.5893 -1.50903 -2.71508 0.6349621 0.7568414 0.1549657 
-28.8791 -2.18176 -1.86477 -0.004552484 -0.6473967 0.7621396 
-28.5456 -1.62082 -2.94557 -0.6144455 -0.785347 -0.07541085 
-28.2074 -1.88791 -2.64728 -0.9408765 0.1314603 -0.3122013 
-28.8041 -2.16162 -1.84943 0.5082542 -0.8606343 0.03140613 
-29.5035 -2.65042 -1.96714 -0.5762107 -0.7059671 0.4118153 
-29.1485 -1.11108 -2.49318 0.6110551 0.7527969 0.2447623 
-28.6099 -1.88193 -1.99226 0.7034488 -0.03300995 0.7099791 
-30.9186 -1.63641 -2.98205 0.6703333 0.7161908 0.1942267 
-30.796 -1.71005 -2.39871 0.4779747 -0.8606765 -0.1754313 
-29.7962 -2.65228 -2.8729 0.6844984 0.6830122 0.2548653 
-28.5191 -1.88699 -3.09024 0.07471331 -0.3684025 0.9266594 
-30.6723 -1.85397 -2.90325 0.6357927 0.7717985 -0.009733798 
-28.6427 -1.71042 -2.14357 0.6700115 0.6459257 0.3658752 
-28.7909 -1.96115 -1.88748 0.5021632 0.08673579 0.8604122 
-29.4313 -2.93182 -2.50239 -0.5653968 -0.7891273 0.2400095 
-29.6543 -2.5007 -1.93353 -0.5209092 -0.6539119 0.5486828 
-29.2929 -2.70682 -2.02078 0.4210439 -0.6744089 0.6065432 
-29.6889 -2.69003 -2.99119 0.7134662 0.6527386 0.2547517 
-30.9886 -1.49881 -3.21138 0.5967478 0.7901233 0.1399906 
-28.7272 -2.08011 -1.94202 0.8272784 -0.5616495 0.01266098 
-28.5219 -1.62378 -3.05902 -0.6130126 -0.7782217 -0.136333 
-28.3154 -2.06049 -2.54042 -0.9287263 0.1795354 -0.3243988 
-29.3646 -2.9342 -2.45287 -0.5121392 -0.7737607 0.3728374 
-28.7543 -2.61554 -2.58689 -0.7578297 0.5868739 -0.2850845 
-30.4883 -2.07294 -2.68304 0.650027 0.7587985 -0.04110483 
-28.4472 -1.68002 -3.2241 -0.7623181 -0.6440977 -0.06331918 
-28.9643 -2.32199 -1.92818 0.7311696 -0.5836681 0.353161 
-28.6706 -2.59567 -2.65479 -0.7840894 0.5924344 -0.1850012 
-30.0571 -2.4299 -2.82291 0.630058 0.7698684 0.1016347 
-28.5045 -2.3526 -2.58459 -0.7043236 0.4641988 -0.5370732 
-28.2304 -2.06876 -2.77478 -0.741381 0.6704237 0.02976943 
-28.3678 -2.33865 -2.76038 -0.8639618 0.4794937 -0.1538044 
-30.2345 -2.24219 -2.95549 0.646136 0.7400162 0.1867734 
-29.1019 -2.49643 -1.88016 0.4537356 -0.7619094 0.4621884 
-29.9934 -2.47208 -2.73838 0.6351942 0.7665846 0.09421437 
-28.5472 -1.85767 -2.07158 0.8931081 0.04288277 0.4477935 
-28.6919 -1.97174 -3.17197 0.1684118 0.195727 0.9660892 
-28.2227 -1.91968 -3.04102 -0.6998308 0.3942903 0.5956275 
-29.7593 -2.66321 -2.91516 0.6269209 0.7467229 0.2222053 
-28.311 -1.80911 -3.19386 -0.8227248 -0.3465495 0.4505856 
-28.7031 -2.50897 -2.42043 -0.7718126 0.6029873 -0.2017717 
-30.0231 -2.43958 -2.86103 0.602598 0.7823399 0.1575436 
-28.492 -1.61609 -3.173 -0.6541559 -0.7518753 -0.0822418 
-29.3747 -2.97156 -2.58477 -0.5239193 -0.7631258 0.3783485 
-29.6748 -2.46326 -1.91166 -0.6248727 -0.7295412 0.2780357 
-29.2603 -2.8013 -2.05807 0.5497499 -0.5061882 0.6644913 
-29.5006 -2.85898 -2.49958 -0.6007459 -0.7919441 0.1092199 
-28.329 -1.97302 -2.53812 -0.8908805 0.2032249 -0.4062409 
-29.0492 -2.8428 -2.40282 -0.1661605 -0.9447877 -0.2824305 
-28.5141 -1.83023 -2.21329 0.8295265 0.4661424 0.3075664 
-28.4835 -1.78748 -2.29914 0.7343314 0.4903665 0.4693593 
-30.9197 -1.6586 -2.8038 0.5816339 0.8115027 -0.05626218 
-29.7023 -2.67813 -2.43064 -0.6255419 -0.75208 0.2075404 
-28.8323 -1.33606 -2.88648 0.6225962 0.7795905 -0.067916 
-28.4712 -1.71283 -2.42996 0.7164046 0.6486953 0.2568248 
-28.3025 -2.1283 -2.61569 -0.7746668 0.5255269 -0.3517285 
-29.744 -2.65088 -2.40353 -0.6243021 -0.7525517 0.2095538 
-28.5992 -1.96112 -2.03784 0.7511528 -0.356522 0.5555733 
-29.4961 -2.84726 -2.45167 -0.5876104 -0.7913697 0.1686658 
-29.2585 -2.80301 -2.0973 0.8890911 -0.134044 0.4376633 
-28.3293 -1.8905 -3.23637 -0.7718424 -0.09525311 0.6286384 
-28.3448 -2.21237 -2.99422 -0.62968 0.5191401 0.5779245 
-30.7687 -1.77423 -3.0176 0.6613291 0.7476979 0.05993067 
-31.0206 -1.55466 -2.95382 0.6367938 0.7471645 0.190365 
-29.9939 -2.43619 -2.39151 -0.6452065 -0.7169361 0.264029 
-31.4598 -1.10202 -2.90015 0.7174006 0.6965823 -0.01046871 
-31.0017 -1.43988 -3.27145 0.5693144 0.8177614 0.08454236 
-29.4906 -2.88162 -3.1171 0.6844895 0.7222437 0.09918657 
-28.5417 -1.57977 -2.61894 0.6354383 0.725001 0.2656913 
-28.3935 -2.27167 -2.78046 -0.8712128 0.4694282 -0.143616 
-29.1735 -2.54276 -1.93892 0.5001795 -0.8074077 0.3129111 
-28.3639 -2.30603 -2.73673 -0.8639618 0.4794937 -0.1538043 
-29.3256 -2.81354 -2.14695 0.03632327 -0.997017 0.06810195 
-28.4895 -1.86157 -2.17351 0.8482383 0.3380078 0.4077284 
-28.178 -1.98801 -2.71003 -0.9252191 -0.02901563 -0.3783225 
-30.4562 -2.01593 -2.99998 0.6395898 0.7684459 0.02039359 
-28.3627 -1.7612 -3.16427 -0.7339256 -0.6746727 0.07854889 
-28.4473 -2.14587 -2.46364 -0.7298351 0.6748955 -0.1088891 
-29.4266 -0.883698 -3.12001 0.6536184 0.7564716 -0.02310496 
-29.807 -2.60019 -2.39741 -0.6645738 -0.7114694 0.2283704 
-31.3357 -1.31262 -3.03618 0.5424257 0.8387634 -0.04743847 
-29.3926 -2.72122 -1.98269 -0.2562615 -0.7627284 0.5937807 
-28.4842 -1.73328 -2.38922 0.7011234 0.6443593 0.3053313 
-29.2453 -1.0105 -2.6026 0.6557552 0.7518806 0.06827012 
-28.5557 -1.72116 -2.28995 0.6232139 0.6476355 0.4383751 
-28.4182 -1.81683 -2.41504 0.839205 0.4300003 0.3329186 
-28.5718 -2.27902 -2.39148 -0.7294198 0.6036777 -0.3217455 
-28.3787 -1.76401 -2.76163 -0.6263128 -0.770306 0.1198374 
-29.0137 -2.82654 -2.43761 -0.6265917 -0.621523 -0.4702043 
-28.1826 -1.9881 -2.80725 -0.868082 0.4943408 0.04539609 
-31.0797 -1.46182 -3.31234 0.4351952 0.8771017 0.2032185 
-28.6847 -1.50061 -3.04007 -0.6918539 -0.7220128 -0.005995086 
-28.879 -2.25082 -1.94893 0.6394453 -0.6917237 0.3356012 
-28.8339 -2.23846 -1.9859 0.7340996 -0.6431113 0.2179578 
-28.7346 -1.71881 -1.9645 0.5824455 0.466409 0.6657476 
-28.2943 -2.01364 -2.56859 -0.7819164 0.1452793 -0.6062184 
-28.2332 -2.00879 -2.60173 -0.8509446 0.0560285 -0.5222586 
-28.2165 -1.98813 -2.64364 -0.8548598 -0.1048079 -0.5081634 
-28.1991 -1.95297 -2.68583 -0.9431026 0.002529249 -0.3324925 
-28.1746 -1.95422 -2.74093 -0.961518 0.07159708 -0.2652489 
-28.2399 -1.87808 -2.82257 -0.7274182 -0.6782368 0.1041991 
-28.31 -1.83047 -2.87558 -0.6484669 -0.7552298 0.09549168 
-28.4135 -1.77151 -2.93428 -0.6619509 -0.7492254 -0.02196524 
-28.4133 -1.73981 -2.98534 -0.6693967 -0.7403275 -0.06183272 
-28.4083 -1.72107 -3.02437 -0.6796172 -0.7273068 -0.09563131 
-28.4906 -1.66882 -3.08084 -0.6812018 -0.7245021 -0.1051705 
-28.4999 -1.638 -3.13101 -0.6812018 -0.7245021 -0.1051704 
-29.2709 -2.76273 -2.13887 -0.4123084 -0.8776675 0.2443391 
-29.1942 -2.34952 -1.94666 0.4051122 0.2159063 0.8884079 
-29.0216 -2.37909 -1.97297 0.6921412 -0.1167033 0.7122647 
-28.7389 -1.93448 -1.93378 0.4473263 0.028997 0.8939007 
-28.6461 -1.91309 -2.01305 0.6558151 -0.37562 0.6548406 
-28.5575 -1.89246 -2.08966 0.8878899 -0.02323154 0.4594691 
-28.5045 -1.88315 -2.1307 0.8732119 0.1608396 0.4600344 
-28.4652 -1.76898 -2.33907 0.7752435 0.4823368 0.4078589 
-28.4152 -2.17081 -2.58675 -0.5272374 0.6474643 -0.5502824 
-28.3522 -2.15872 -2.60073 -0.6919191 0.5303766 -0.4898456 
-28.3227 -2.15494 -2.65646 -0.848439 0.4707966 -0.2418714 
-28.543 -1.60623 -2.57343 0.6297448 0.7375997 0.243656 
-28.5277 -2.4166 -3.02385 -0.8114387 0.5221725 0.2624943 
-28.5772 -1.53912 -2.66997 0.634962 0.7568414 0.1549659 
-28.2219 -2.05466 -2.8405 -0.8428621 0.537105 0.03319214 
-28.2041 -2.04669 -2.89889 -0.8431366 0.5376468 0.007532666 
-28.6697 -1.45239 -2.7707 0.5865711 0.7971532 0.1431118 
-28.1997 -1.99741 -2.94722 -0.9686853 0.2229997 0.1091784 
-28.7433 -1.39655 -2.82852 0.6354584 0.7682277 -0.07758173 
-28.1913 -2.00189 -2.98333 -0.9906569 0.1204825 0.06389739 
-28.9487 -1.26459 -2.94933 0.5943031 0.8023512 0.05510538 
-28.2263 -1.914 -3.12135 -0.7362752 0.4096349 0.5386075 
-28.255 -1.87933 -3.16892 -0.8400176 0.2429209 0.4851392 
-29.0962 -1.1915 -2.39116 0.6418497 0.7017878 0.3090679 
-29.8606 -2.57407 -2.84375 0.6876466 0.7183529 0.1054108 
-29.2329 -2.54865 -1.90109 -0.05892571 -0.373908 0.9255921 
-29.1048 -2.54053 -1.97553 0.4450691 -0.8791876 0.1701254 
-29.2265 -2.87656 -2.24789 -0.2212819 -0.9631309 0.1530141 
-29.1969 -2.8602 -2.28794 -0.09843239 -0.9885693 0.1142015 
-28.9059 -2.13022 -1.86486 -0.2812966 -0.1914033 0.9403388 
-28.7906 -2.12054 -1.94135 0.8264183 -0.5535216 0.1031815 
-29.0406 -1.51819 -1.89093 0.5317512 0.6154876 0.5817351 
-28.438 -2.02371 -2.29018 -0.8294726 0.2105233 -0.5173541 
-29.1041 -1.30234 -2.19883 0.3386171 0.8041604 0.4885331 
-28.3758 -1.99759 -2.36795 -0.8232062 0.382711 -0.4193612 
-28.4599 -2.34558 -2.61937 -0.6533989 0.577284 -0.4897071 
-28.4192 -2.3342 -2.6598 -0.6658779 0.5614529 -0.4913017 
-28.3344 -1.96164 -2.45107 -0.8879835 0.2892184 -0.3575443 
-28.4093 -2.31686 -2.69458 -0.727357 0.5866473 -0.3560852 
-28.3226 -1.94485 -2.48604 -0.8817438 0.3029733 -0.3615729 
-29.1169 -1.1503 -2.4469 0.6365366 0.7326503 0.240925 
-28.368 -2.24332 -2.84281 -0.9206445 0.3812289 0.08413132 
-28.2076 -1.91406 -2.60267 -0.8124927 0.2543722 -0.5245478 
-29.1853 -1.06607 -2.54605 0.6345063 0.7489644 0.1909295 
-28.3442 -2.21445 -2.90546 -0.7894579 0.5960413 0.1465982 
-28.3146 -1.81613 -2.7089 -0.6494774 -0.7598987 -0.02707919 
-29.2835 -0.964569 -2.65636 0.6762357 0.7363552 0.0220537 
-28.3413 -2.19162 -2.94686 -0.7869646 0.5930129 0.1703601 
-28.6291 -1.55313 -2.98119 -0.6246051 -0.7737903 -0.1054377 
-30.8895 -1.86771 -2.40225 0.8093604 -0.5842268 0.06012227 
-29.3064 -2.71222 -1.99372 0.228235 -0.8584806 0.4592602 
-29.5681 -2.14496 -1.86379 -0.08021739 -0.1220258 0.98928 
-29.2473 -2.25479 -1.87254 0.3115819 0.2571809 0.9147539 
-28.9854 -2.34042 -1.88623 0.4853943 -0.1229854 0.8656021 
-28.8557 -1.8519 -1.88551 0.3873445 0.07064407 0.9192245 
-28.7201 -1.88635 -1.9154 0.5490727 0.09436432 0.8304304 
-28.6343 -1.8999 -1.94776 0.6809257 -0.1575009 0.7152158 
-28.5745 -1.87244 -2.03015 0.8377498 -0.1803571 0.5154091 
-28.5481 -1.80554 -2.15616 0.8496397 0.4003375 0.3432817 
-28.5645 -1.76865 -2.206 0.6963325 0.6218444 0.3583724 
-28.5647 -1.74274 -2.24854 0.6931548 0.6204271 0.3668879 
-28.4503 -2.18088 -2.46659 -0.7298352 0.6748954 -0.1088891 
-28.5699 -1.68854 -2.33463 0.5925555 0.6849304 0.4239672 
-28.3968 -2.15234 -2.54737 -0.5858084 0.7017896 -0.4053638 
-28.566 -1.66125 -2.38228 0.635497 0.7158797 0.2892402 
-28.5871 -1.62527 -2.42826 0.6471498 0.7266623 0.2305627 
-28.6339 -1.57523 -2.48092 0.6548728 0.7202167 0.2289752 
-28.3126 -2.10654 -2.65979 -0.9046641 0.413171 -0.1042713 
-28.6564 -1.53836 -2.52761 0.6406814 0.7327818 0.2292561 
-28.7036 -1.46182 -2.62472 0.6264043 0.7620173 0.1641565 
-28.7638 -1.40472 -2.68077 0.570806 0.8135222 0.1111856 
-28.2334 -2.05069 -2.82254 -0.7054226 0.6988044 -0.118539 
-28.2128 -2.02951 -2.86414 -0.8441989 0.533054 0.05640503 
-28.2054 -2.01187 -2.90731 -0.8365616 0.5477547 0.01138365 
-28.2113 -1.95172 -2.99461 -0.9811657 -0.183999 0.05880763 
-29.2134 -1.04568 -2.98766 0.6410857 0.766566 -0.03722527 
-28.2806 -1.8512 -3.13955 -0.7592184 0.2723262 0.5911226 
-28.3396 -1.77087 -3.24271 -0.7729359 -0.4582036 0.4388844 
-28.7146 -2.54803 -2.38197 -0.7658309 0.5954841 -0.2426969 
-29.3208 -2.45728 -1.93745 0.1659092 -0.2238626 0.9603956 
-29.1351 -2.51257 -1.96581 0.4450693 -0.8791875 0.1701253 
-29.2986 -2.82108 -2.22126 -0.2433415 -0.9173196 0.3151344 
-28.965 -2.08008 -1.91754 -0.1324926 0.06500569 0.98905 
-28.7956 -2.13559 -1.93165 0.8676351 -0.4884134 0.09306807 
-29.1179 -1.43954 -1.96413 0.5269688 0.6780767 0.5123631 
-28.6717 -2.47195 -2.33198 -0.8216345 0.4516099 -0.3478004 
-28.7075 -2.42664 -2.38391 -0.8216345 0.4516101 -0.3478004 
-28.5873 -2.38242 -2.53788 -0.7824342 0.4415337 -0.439141 
-28.5521 -2.37332 -2.57673 -0.7043237 0.4641989 -0.5370732 
-28.4942 -2.35254 -2.65097 -0.6451143 0.582242 -0.4947948 
-28.4518 -2.34738 -2.68839 0.08426561 0.9458187 0.3135704 
-28.313 -1.95782 -2.57518 -0.7925937 0.2491313 -0.556533 
-29.1478 -1.08218 -2.5215 0.6345063 0.7489644 0.1909295 
-28.2439 -1.944 -2.64843 -0.9634876 0.1072436 -0.2453372 
-28.3527 -2.24567 -2.93095 -0.8016716 0.54348 0.2489021 
-28.2022 -1.91284 -2.7314 -0.9060841 -0.005953211 -0.4230559 
-29.4616 -2.63696 -1.94597 -0.5716006 -0.7037775 0.4218648 
-28.9772 -2.35461 -1.96556 0.8300056 -0.48744 0.2710957 
-28.6829 -1.96603 -1.96412 0.6077463 -0.1370316 0.7822192 
-28.5313 -1.91626 -2.16341 0.8783425 0.06341949 0.4738064 
-28.4771 -1.91986 -2.20075 0.8514487 0.2864243 0.4393136 
-28.4639 -1.89966 -2.24385 0.8300853 0.3697963 0.4173835 
-28.4164 -1.8613 -2.34422 0.8548063 0.3516921 0.3816004 
-28.4212 -2.23007 -2.58779 -0.5826434 0.6059254 -0.5416465 
-28.3823 -2.22842 -2.62065 -0.6061638 0.5930632 -0.5299449 
-28.3535 -2.21799 -2.6604 -0.7224649 0.5547896 -0.4126174 
-28.4371 -1.7533 -2.50369 0.7179113 0.6367897 0.2812515 
-28.3155 -2.18777 -2.74064 -0.8455087 0.5279071 -0.08018278 
-28.3149 -2.16306 -2.78279 -0.8477605 0.5254518 -0.07212939 
-28.5075 -1.63074 -2.6478 0.6596891 0.7166052 0.226467 
-28.2933 -2.14719 -2.82647 -0.813262 0.5656216 -0.1366646 
-28.5836 -1.55521 -2.71007 0.634962 0.7568414 0.1549657 
-28.6497 -1.4888 -2.76567 0.5900693 0.7950786 0.1402436 
-28.258 -2.09241 -2.94727 -0.8010379 0.5976646 0.03369523 
-29.137 -1.11032 -2.99198 0.627319 0.7786015 0.01583445 
-28.3027 -1.9848 -3.09544 -0.7150522 0.5323838 0.4530649 
-28.3147 -1.92749 -3.18439 -0.7359365 0.4041483 0.5431958 
-29.694 -2.61108 -3.04379 0.6235627 0.6781129 0.3890148 
-29.3851 -2.55188 -1.89532 -0.08901522 -0.1407173 0.9860401 
-29.2334 -2.60831 -1.92405 0.5872282 -0.6539661 0.4769605 
-29.3136 -2.08966 -1.83128 -0.01166298 -0.2101769 0.9775938 
-29.062 -2.21219 -1.84681 0.1074391 -0.1371979 0.9846998 
-28.7917 -1.7868 -1.8957 0.4109954 0.1467918 0.8997416 
-28.6838 -1.79758 -1.97261 0.6927541 0.3986353 0.6009839 
-28.6518 -1.76141 -2.05641 0.6814675 0.5685847 0.4607748 
-28.6497 -1.73694 -2.09627 0.6694365 0.6293282 0.3947163 
-28.6625 -1.66977 -2.1895 0.6771946 0.6359999 0.3700158 
-28.6756 -1.63348 -2.23465 0.6808615 0.6351168 0.3647662 
-28.683 -1.59732 -2.28458 0.6840695 0.6396853 0.3505023 
-28.6731 -1.57431 -2.3293 0.679612 0.6648157 0.3100767 
-28.4024 -2.1481 -2.49833 -0.5461004 0.7750317 -0.3179626 
-28.6774 -1.54364 -2.37359 0.6858729 0.6788309 0.2622346 
-28.3797 -2.13461 -2.53936 -0.5782996 0.6930734 -0.4303708 
-28.7431 -1.47018 -2.43068 0.7023033 0.6791433 0.2133881 
-28.3303 -2.13831 -2.57568 -0.6427675 0.6758112 -0.3607343 
-28.774 -1.4198 -2.48258 0.6568258 0.7331756 0.1761629 
-28.946 -1.27444 -2.55848 0.6205368 0.7782676 0.09609172 
-28.9703 -1.23148 -2.60474 0.667863 0.736304 0.1086991 
-29.4682 -0.804047 -2.83574 0.6450863 0.7640366 -0.0105718 
-28.2594 -1.85626 -3.09828 -0.8022167 0.2530462 0.5407552 
-29.1458 -2.54065 -1.90091 0.3126251 -0.8409855 0.4415981 
-29.281 -2.81451 -2.18234 -0.2758396 -0.9261829 0.257095 
-28.7905 -2.18674 -1.93738 0.8547164 -0.5187241 0.01962566 
-28.4007 -2.11255 -2.40825 -0.669575 0.5125194 -0.537581 
-28.3947 -2.08951 -2.4496 -0.7560695 0.4526184 -0.4727531 
-28.2487 -2.05255 -2.64371 -0.6512358 0.4232569 -0.6298776 
-28.2001 -2.06232 -2.67433 -0.9331141 0.3120641 -0.1786453 
-28.1836 -2.01291 -2.76723 -0.8527265 0.5210687 -0.0366744 
-28.2201 -1.90237 -2.9067 -0.8487148 -0.5040068 0.1601887 
-30.8428 -1.82874 -2.31987 0.7565941 -0.6236857 -0.1964219 
-28.9306 -2.07013 -1.86451 -0.1710024 -0.1526577 0.9733724 
-28.3229 -2.06573 -2.47663 -0.8189222 0.3888164 -0.4221236 
-28.2073 -1.99515 -2.68884 -0.9120101 -0.1641662 -0.3758818 
-28.1697 -1.98254 -2.75769 -0.961518 0.07159708 -0.2652488 
-28.1664 -1.95486 -2.80294 -0.9782565 0.2071083 0.01097319 
-30.6107 -1.73651 -2.14997 0.516713 -0.8283204 -0.2165478 
-29.4064 -2.94849 -3.18137 0.6648953 0.7375139 0.1182692 
-29.3154 -2.75919 -2.02514 0.4519002 -0.6472321 0.6139029 
-29.3904 -2.24289 -1.86969 -0.02996167 -0.07006972 0.9970921 
-29.2649 -2.75586 -2.04096 0.7874914 -0.2873245 0.5452541 
-29.1624 -2.3978 -1.88281 0.3850092 0.2703444 0.8824295 
-28.7812 -2.11145 -1.88434 0.9325498 0.1382425 0.3335267 
-28.4248 -2.04883 -2.35469 -0.8312471 0.3188592 -0.4553647 
-29.0022 -2.84592 -2.44011 -0.6265917 -0.621523 -0.4702043 
-29.4667 -2.62921 -1.96234 -0.5716006 -0.7037775 0.4218648 
-29.3957 -2.19284 -1.84271 -0.02996168 -0.07006972 0.9970921 
-29.2041 -2.33139 -1.86178 0.4051123 0.2159062 0.8884079 
-28.9821 -2.43719 -1.95972 0.8685777 -0.4380098 0.2317761 
-28.8177 -2.06354 -1.86198 0.6871835 0.1253166 0.7155939 
-30.6543 -1.8967 -2.62561 0.6956658 0.7124554 0.091959 
-30.8693 -1.83847 -2.27729 0.7565941 -0.6236858 -0.1964219 
-29.3283 -2.72638 -1.95763 0.3986584 -0.7534697 0.5228336 
-30.8216 -1.7778 -2.41335 0.8757351 -0.4797454 -0.05415189 
-29.0215 -2.4252 -1.92683 0.8561276 -0.4858948 0.1759318 
-28.7551 -2.11417 -1.89272 0.6978667 -0.7139088 -0.05758682 
-31.0488 -1.49506 -3.10458 0.4880544 0.8243413 0.2868178 
-29.8267 -2.32343 -1.88285 -0.04466774 -0.1431702 0.9886896 
-29.6078 -2.50479 -1.8895 -0.474337 -0.674228 0.5660574 
-29.4592 -2.66199 -1.91717 -0.1788654 -0.4828909 0.8572186 
-30.7956 -1.74899 -2.3483 0.6039146 -0.7876505 -0.1220408 
-29.3479 -2.746 -1.9422 0.3986584 -0.7534697 0.5228336 
-29.2955 -2.76584 -1.9789 0.5518782 -0.7300186 0.403117 
-29.9989 -2.42099 -2.39397 -0.6452065 -0.7169361 0.264029 
-29.3074 -2.95889 -2.48693 -0.4868538 -0.7830232 0.3871023 
-31.2337 -1.34259 -3.26649 0.5391652 0.826834 0.1601456 
-30.896 -1.61023 -3.28807 0.6522506 0.750094 0.1092164 
-29.2086 -3.08298 -2.6087 -0.35856 -0.8916502 0.276396 
-30.0923 -2.38779 -2.66612 0.6207494 0.7826641 0.04590334 
-29.2486 -2.77933 -2.09885 0.8890911 -0.134044 0.4376634 
-29.0673 -2.49667 -1.91248 0.7079905 -0.6740214 0.2108192 
-28.8836 -2.09708 -1.81953 -0.08470023 -0.1004716 0.9913281 
-28.7959 -2.15546 -1.88765 0.9404575 -0.339823 0.007752346 
-31.1936 -1.42859 -3.0568 0.5304587 0.8466757 -0.04187833 
-31.1069 -1.44681 -3.1368 0.4395345 0.8907537 0.1156164 
-31.0181 -1.50473 -3.16848 0.379046 0.9145725 0.1410014 
-30.7212 -1.83514 -2.59339 0.3317226 0.8740736 -0.3549021 
-29.7494 -2.41275 -1.88798 -0.09497657 -0.2650204 0.9595539 
-29.4416 -2.70276 -1.9933 -0.5270741 -0.713485 0.4616624 
-29.412 -2.19238 -1.81624 -0.02996168 -0.07006972 0.9970921 
-30.6487 -1.68777 -2.40965 0.2360585 -0.947436 0.2159663 
-29.2468 -2.37515 -1.83498 -0.1623086 -0.02523144 0.9864175 
-29.2358 -2.81543 -2.12508 -0.840213 -0.5410686 -0.03587262 
-29.0614 -2.48996 -1.9461 0.6506755 -0.7443542 0.1501937 
-31.1931 -1.38959 -2.9384 0.5421653 0.8387752 -0.05012995 
-28.8526 -2.1427 -1.83585 0.0938701 -0.1572746 0.9830835 
-29.5596 -2.81186 -2.45351 -0.5301818 -0.8185301 0.2211689 
-30.8516 -1.67542 -3.01833 0.657906 0.7344255 0.1666706 
-29.4037 -2.95166 -2.5379 -0.5121394 -0.7737607 0.3728372 
-29.3125 -3.02353 -2.54629 -0.5063911 -0.7632341 0.4013001 
-29.2645 -3.06412 -2.5834 -0.377286 -0.8804161 0.2872677 
-29.0106 -2.858 -2.38939 -0.1661604 -0.9447877 -0.2824304 
-30.7019 -1.69717 -2.20146 0.516713 -0.8283204 -0.2165478 
-29.7602 -2.37683 -1.91581 -0.09497663 -0.2650206 0.9595539 
-29.5642 -2.57159 -1.9742 -0.4489714 -0.7163834 0.5340595 
-31.2576 -1.38211 -2.67884 0.6626684 0.7365741 0.1353852 
-31.1507 -1.49063 -2.70597 0.6833395 0.7278351 0.05747478 
-29.355 -2.79465 -2.02529 0.001438485 -0.8804288 0.4741764 
-29.2061 -2.41824 -1.84497 0.1759253 0.1567669 0.9718407 
-31.0539 -1.56494 -2.73592 0.5929834 0.8051354 -0.01130282 
-30.0072 -2.40091 -2.35048 -0.6452065 -0.7169361 0.2640291 
-30.9786 -1.62283 -2.7681 0.5917112 0.8060735 -0.01111171 
-30.7514 -1.79489 -2.86774 0.6264552 0.7787548 0.03308769 
-29.5655 -2.80612 -2.49215 -0.5566719 -0.8122329 0.1743398 
-30.561 -1.96643 -2.92057 0.6562333 0.7545098 -0.008538955 
-29.3362 -3.01035 -2.57055 -0.4610054 -0.7941778 0.3959237 
-30.3518 -2.12329 -3.01424 0.6681911 0.7275099 0.1557242 
-30.23 -2.24457 -3.03506 0.6319088 0.7538172 0.1801414 
-29.2034 -3.10382 -2.65461 -0.3822823 -0.9236839 0.02585384 
-29.1089 -3.09555 -2.79495 -0.186901 -0.9227867 -0.3369464 
-29.0568 -3.08087 -2.85997 -0.04970532 -0.9410594 -0.3345693 
-28.7759 -2.16501 -1.89626 0.8677506 -0.4658283 0.1732423 
-30.9684 -1.58517 -2.49579 0.8028118 0.5471404 -0.2369191 
-29.5729 -2.58304 -1.93655 -0.4489715 -0.7163834 0.5340595 
-29.1288 -2.47318 -1.88862 -0.699814 -0.5262525 0.4830307 
-29.2713 -2.84067 -2.10091 0.004967213 -0.9857593 0.1680894 
-29.7613 -2.62869 -2.40579 -0.6243021 -0.7525517 0.2095538 
-30.5044 -2.02209 -2.8257 0.6710783 0.7252452 0.1538615 
-29.6151 -2.77399 -2.45803 -0.5982149 -0.7767081 0.1971382 
-30.369 -2.12759 -2.89594 0.6777983 0.7123964 0.1818817 
-29.4964 -2.86212 -2.52548 -0.6007459 -0.791944 0.10922 
-30.2138 -2.22739 -2.99831 0.646136 0.7400162 0.1867733 
-30.1341 -2.30209 -3.02654 0.6473274 0.7326177 0.2103298 
-30.0356 -2.40698 -3.04842 0.6053514 0.7248598 0.3288281 
-29.2012 -3.11261 -2.68925 -0.2361139 -0.9701427 0.05543775 
-29.1048 -3.09296 -2.82926 -0.0497053 -0.9410594 -0.3345693 
-29.0778 -3.08304 -2.8722 -0.04970532 -0.9410594 -0.3345693 
-29.0635 -3.06158 -2.91306 -0.2332965 -0.8594884 -0.4548103 
-29.0445 -3.04013 -2.95906 -0.2332976 -0.859488 -0.4548106 
-30.8732 -1.79724 -2.42363 0.8757352 -0.4797452 -0.05415178 
-29.68 -2.40939 -1.90646 -0.09497662 -0.2650206 0.9595539 
-29.5662 -2.56738 -1.92785 -0.4489711 -0.7163832 0.53406 
-30.7814 -1.79199 -2.55283 0.8521895 0.2903526 0.4352798 
-29.5175 -2.60254 -1.96507 -0.5762106 -0.7059669 0.4118155 
-30.5719 -1.98187 -2.65634 0.6881232 0.7255778 -0.004827479 
-30.4389 -2.10599 -2.71859 0.6520402 0.7581087 -0.01070911 
-30.367 -2.17468 -2.75058 0.6597257 0.7327803 0.1667185 
-31.2188 -1.40112 -3.18703 0.5228087 0.833368 0.1793572 
-30.3277 -2.19092 -2.78837 0.6700758 0.7259572 0.1548695 
-29.5992 -2.78143 -2.45223 -0.526699 -0.8099415 0.2580369 
-31.1778 -1.40884 -3.23399 0.5320751 0.8309914 0.1623248 
-30.2545 -2.25949 -2.82217 0.6502147 0.744074 0.1535407 
-31.1477 -1.40198 -3.28092 0.4348479 0.8876983 0.1513246 
-29.4422 -2.90491 -2.55476 -0.5653969 -0.7891273 0.2400094 
-30.0829 -2.40408 -2.91687 0.6554738 0.7378448 0.1610564 
-29.3207 -3.02332 -2.61343 -0.5610403 -0.8041538 0.1963938 
-30.0111 -2.42017 -2.99815 0.6198306 0.728389 0.2919925 
-29.2637 -3.07779 -2.64186 -0.35856 -0.8916501 0.2763959 
-29.9262 -2.51227 -3.02544 0.591155 0.6983123 0.4036033 
-29.8782 -2.5491 -3.05528 0.6069766 0.6542341 0.4511732 
-29.9498 -2.36865 -3.12892 0.577493 0.6614496 0.4785252 
-29.1361 -3.10443 -2.79086 -0.1869012 -0.9227866 -0.3369465 
-28.8954 -2.83853 -2.59741 -0.6685427 -0.5763364 -0.4699861 
-28.8614 -2.85165 -2.63261 -0.6838627 0.4279241 -0.5909422 
-29.0966 -3.06531 -2.87912 -0.1615681 -0.8855955 -0.4354495 
-29.0405 -3.01138 -3.00296 -0.2332976 -0.859488 -0.4548106 
-30.948 -1.65991 -2.86348 0.6534494 0.7357391 0.1780228 
-31.1315 -1.45914 -3.02485 0.6152617 0.7844435 0.07811215 
-31.3916 -1.28171 -2.83108 0.7158263 0.6982745 0.002327133 
-29.5185 -2.57162 -1.91669 -0.5811816 -0.7335109 0.3524057 
-31.1891 -1.41492 -2.9864 0.5421653 0.8387752 -0.05012995 
-29.7088 -2.66147 -2.33895 -0.6243021 -0.7525517 0.2095539 
-31.0955 -1.45953 -3.07313 0.5094077 0.8515418 0.1240181 
-30.2594 -2.26978 -2.6832 0.6998763 0.7112824 -0.06519641 
-29.6468 -2.72363 -2.37409 -0.6358829 -0.7474734 0.1921886 
-30.2133 -2.30978 -2.71225 0.6471274 0.7623232 0.009456737 
-29.6068 -2.75549 -2.40347 -0.598215 -0.7767081 0.197138 
-30.1651 -2.33936 -2.75274 0.6198019 0.7829816 0.05277726 
-30.1194 -2.3717 -2.78757 0.6306909 0.7752579 0.03470275 
-29.9856 -2.45255 -2.90098 0.6086691 0.7856714 0.1106457 
-29.9033 -2.50479 -2.96853 0.6595776 0.7504076 0.04296394 
-29.8283 -2.59039 -2.99762 0.5853534 0.7875237 0.1927891 
-29.7506 -2.65506 -3.04819 0.6235627 0.6781129 0.3890149 
-28.9456 -2.8223 -2.51981 -0.6801099 -0.5448055 -0.4905484 
-29.7854 -2.4935 -3.13771 0.5284758 0.6442413 0.5528712 
-28.8246 -2.84933 -2.66539 -0.6836442 0.4204625 -0.596525 
-29.5287 -2.84155 -3.19056 0.6844896 0.7222438 0.09918642 
-29.4814 -2.87726 -3.22421 0.6672915 0.7363414 0.1119082 
-29.4392 -2.91019 -3.25343 0.6424747 0.7467671 0.1719455 
-31.0975 -1.55447 -2.74267 0.5929834 0.8051355 -0.01130297 
-30.418 -2.06314 -2.46258 0.655602 0.735716 -0.1700236 
-30.9997 -1.61642 -2.82737 0.6176054 0.7730381 0.1448298 
-30.304 -2.18021 -2.53135 0.7095129 0.69578 -0.1117209 
-30.9098 -1.67096 -2.90701 0.669761 0.7234306 0.1675363 
-30.2399 -2.2533 -2.56444 0.644904 0.749451 -0.1497405 
-30.8507 -1.73486 -2.93679 0.6563475 0.7448996 0.1197188 
-30.8185 -1.73367 -2.98193 0.6302264 0.7655198 0.1295924 
-30.1325 -2.36273 -2.62963 0.6387104 0.7694457 -0.001538879 
-30.7104 -1.82489 -3.05659 0.6951685 0.6860223 0.2147423 
-30.0247 -2.46664 -2.69938 0.6340585 0.7724338 0.03627554 
-30.6541 -1.8801 -3.08926 0.6365029 0.7501296 0.1793591 
-30.5921 -1.94803 -3.11945 0.636661 0.7531899 0.1654321 
-29.5878 -2.79398 -3.05086 0.7527522 0.6310773 0.1873645 
-29.5481 -2.82071 -3.08474 0.7026055 0.7068959 0.08150959 
3 189 134 485 
3 485 75 189 
3 134 216 485 
3 189 160 134 
3 75 439 189 
3 485 27 75 
3 216 27 485 
3 216 119 27 
3 134 410 216 
3 160 251 134 
3 189 410 160 
3 75 251 439 
3 27 332 75 
3 216 50 119 
3 251 392 134 
3 189 439 410 
3 75 392 251 
3 75 332 392 
3 50 432 119 
3 432 225 119 
3 225 448 119 
3 432 422 225 
3 225 429 448 
3 422 429 225 
3 422 369 429 
3 429 148 448 
3 369 529 429 
3 422 370 369 
3 148 503 448 
3 429 483 148 
3 529 483 429 
3 529 428 483 
3 369 428 529 
3 369 51 428 
3 370 276 369 
3 422 432 370 
3 503 415 448 
3 148 464 503 
3 483 464 148 
3 483 159 464 
3 428 159 483 
3 428 188 159 
3 51 500 428 
3 369 60 51 
3 276 60 369 
3 276 468 60 
3 370 109 276 
3 503 428 415 
3 159 51 464 
3 188 447 159 
3 428 447 188 
3 51 47 500 
3 60 409 51 
3 468 131 60 
3 276 97 468 
3 109 97 276 
3 109 79 97 
3 370 59 109 
3 503 464 428 
3 51 415 464 
3 447 463 159 
3 47 447 500 
3 51 427 47 
3 409 449 51 
3 60 451 409 
3 131 451 60 
3 131 468 451 
3 468 417 451 
3 97 79 468 
3 79 417 468 
3 79 43 417 
3 109 2 79 
3 59 277 109 
3 370 160 59 
3 463 500 159 
3 447 47 463 
3 47 427 463 
3 427 302 463 
3 51 302 427 
3 409 451 449 
3 417 303 451 
3 43 372 417 
3 79 304 43 
3 109 440 2 
3 277 440 109 
3 277 418 440 
3 160 439 59 
3 370 408 160 
3 463 302 500 
3 303 449 451 
3 303 371 449 
3 417 372 303 
3 372 371 303 
3 43 304 372 
3 304 144 372 
3 79 2 304 
3 2 418 304 
3 418 2 440 
3 277 253 418 
3 371 302 449 
3 144 441 372 
3 304 110 144 
3 418 92 304 
3 253 348 418 
3 277 331 253 
3 441 99 372 
3 144 455 441 
3 110 455 144 
3 110 24 455 
3 304 92 110 
3 92 236 110 
3 418 21 92 
3 253 170 348 
3 331 411 253 
3 277 59 331 
3 59 330 331 
3 99 53 372 
3 441 71 99 
3 455 24 441 
3 24 71 441 
3 24 419 71 
3 110 481 24 
3 236 237 110 
3 92 237 236 
3 92 21 237 
3 170 21 348 
3 253 98 170 
3 411 98 253 
3 331 214 411 
3 330 252 331 
3 99 71 53 
3 71 305 53 
3 419 157 71 
3 24 425 419 
3 481 425 24 
3 481 80 425 
3 110 393 481 
3 237 393 110 
3 237 80 393 
3 21 98 348 
3 170 237 21 
3 170 280 237 
3 98 424 170 
3 214 391 411 
3 305 36 53 
3 71 157 305 
3 157 306 305 
3 419 49 157 
3 425 163 419 
3 80 163 425 
3 481 393 80 
3 237 281 80 
3 21 424 98 
3 21 418 424 
3 418 177 424 
3 280 281 237 
3 280 419 281 
3 170 372 280 
3 391 177 411 
3 214 59 391 
3 36 13 53 
3 305 373 36 
3 306 373 305 
3 306 111 373 
3 157 49 306 
3 49 307 306 
3 419 80 49 
3 419 163 281 
3 372 401 280 
3 36 282 13 
3 373 238 36 
3 111 238 373 
3 111 374 238 
3 306 374 111 
3 306 307 374 
3 307 150 374 
3 49 201 307 
3 282 95 13 
3 374 375 238 
3 150 308 374 
3 307 201 150 
3 201 308 150 
3 201 70 308 
3 49 163 201 
3 282 335 95 
3 375 376 238 
3 374 308 375 
3 308 179 375 
3 70 179 308 
3 70 257 179 
3 376 156 238 
3 375 44 376 
3 179 44 375 
3 179 257 44 
3 257 217 44 
3 70 351 257 
3 156 377 238 
3 376 309 156 
3 44 309 376 
3 44 217 309 
3 217 193 309 
3 257 351 217 
3 351 352 217 
3 156 311 377 
3 309 310 156 
3 193 126 309 
3 217 126 193 
3 217 194 126 
3 352 353 217 
3 351 283 352 
3 311 228 377 
3 156 310 311 
3 310 194 311 
3 309 126 310 
3 194 310 126 
3 217 353 194 
3 353 258 194 
3 352 285 353 
3 283 285 352 
3 283 100 285 
3 351 70 283 
3 228 378 377 
3 311 194 228 
3 194 258 228 
3 258 226 228 
3 353 229 258 
3 285 66 353 
3 100 402 285 
3 283 413 100 
3 228 313 378 
3 226 313 228 
3 226 315 313 
3 258 198 226 
3 229 198 258 
3 229 104 198 
3 353 288 229 
3 66 288 353 
3 66 402 288 
3 402 66 285 
3 100 394 402 
3 413 394 100 
3 413 283 394 
3 283 10 394 
3 313 379 378 
3 315 380 313 
3 226 198 315 
3 198 58 315 
3 104 28 198 
3 229 28 104 
3 229 127 28 
3 288 290 229 
3 402 127 288 
3 394 381 402 
3 10 381 394 
3 10 312 381 
3 313 380 379 
3 380 384 379 
3 315 316 380 
3 58 316 315 
3 58 72 316 
3 198 113 58 
3 28 113 198 
3 28 296 113 
3 127 88 28 
3 229 290 127 
3 290 288 127 
3 402 240 127 
3 381 385 402 
3 312 354 381 
3 10 130 312 
3 380 382 384 
3 316 382 380 
3 316 317 382 
3 72 317 316 
3 72 262 317 
3 58 113 72 
3 113 262 72 
3 113 212 262 
3 296 231 113 
3 28 146 296 
3 88 293 28 
3 127 240 88 
3 240 293 88 
3 240 8 293 
3 402 8 240 
3 402 385 8 
3 385 199 8 
3 381 355 385 
3 354 355 381 
3 354 286 355 
3 312 130 354 
3 130 286 354 
3 130 39 286 
3 10 39 130 
3 10 230 39 
3 382 319 384 
3 317 319 382 
3 317 262 319 
3 262 142 319 
3 212 142 262 
3 212 264 142 
3 113 360 212 
3 231 360 113 
3 231 4 360 
3 296 56 231 
3 146 56 296 
3 146 346 56 
3 28 293 146 
3 293 242 146 
3 8 218 293 
3 199 397 8 
3 385 356 199 
3 355 356 385 
3 355 287 356 
3 286 287 355 
3 286 341 287 
3 39 339 286 
3 230 336 39 
3 319 142 384 
3 142 386 384 
3 264 143 142 
3 212 360 264 
3 360 143 264 
3 360 362 143 
3 4 362 360 
3 4 102 362 
3 231 57 4 
3 56 245 231 
3 346 244 56 
3 146 141 346 
3 242 141 146 
3 242 218 141 
3 218 242 293 
3 8 397 218 
3 397 398 218 
3 199 261 397 
3 356 18 199 
3 287 215 356 
3 341 175 287 
3 286 340 341 
3 339 340 286 
3 39 85 339 
3 336 85 39 
3 336 329 85 
3 142 320 386 
3 143 320 142 
3 143 267 320 
3 362 102 143 
3 102 145 143 
3 4 90 102 
3 57 90 4 
3 57 247 90 
3 231 245 57 
3 245 247 57 
3 245 248 247 
3 56 244 245 
3 244 399 245 
3 346 141 244 
3 141 399 244 
3 141 37 399 
3 218 398 141 
3 398 405 141 
3 397 174 398 
3 261 18 397 
3 18 261 199 
3 356 215 18 
3 215 358 18 
3 287 175 215 
3 175 7 215 
3 341 7 175 
3 341 213 7 
3 340 213 341 
3 85 171 339 
3 329 167 85 
3 320 321 386 
3 267 321 320 
3 267 269 321 
3 143 363 267 
3 145 363 143 
3 145 299 363 
3 102 90 145 
3 90 164 145 
3 247 248 90 
3 248 164 90 
3 248 249 164 
3 245 390 248 
3 399 181 245 
3 37 325 399 
3 141 405 37 
3 405 233 37 
3 398 233 405 
3 398 266 233 
3 174 265 398 
3 397 48 174 
3 18 358 397 
3 215 7 358 
3 7 361 358 
3 213 292 7 
3 171 340 339 
3 171 121 340 
3 85 167 171 
3 167 77 171 
3 321 387 386 
3 269 76 321 
3 267 299 269 
3 299 267 363 
3 145 164 299 
3 164 91 299 
3 249 250 164 
3 248 250 249 
3 248 186 250 
3 390 220 248 
3 181 246 245 
3 399 325 181 
3 325 139 181 
3 37 270 325 
3 233 266 37 
3 266 270 37 
3 266 364 270 
3 398 265 266 
3 265 11 266 
3 174 361 265 
3 397 318 48 
3 361 174 358 
3 7 295 361 
3 292 345 7 
3 213 359 292 
3 121 289 340 
3 321 76 387 
3 76 388 387 
3 269 197 76 
3 299 235 269 
3 91 235 299 
3 164 186 91 
3 186 164 250 
3 248 220 186 
3 220 169 186 
3 390 183 220 
3 181 139 246 
3 139 273 246 
3 325 270 139 
3 270 272 139 
3 364 366 270 
3 266 11 364 
3 11 205 364 
3 265 361 11 
3 361 295 11 
3 295 345 11 
3 318 358 48 
3 397 396 318 
3 292 42 345 
3 359 295 292 
3 289 173 340 
3 121 7 289 
3 388 291 387 
3 76 135 388 
3 197 135 76 
3 197 271 135 
3 269 235 197 
3 220 328 169 
3 183 328 220 
3 183 31 328 
3 390 31 183 
3 390 273 31 
3 273 367 246 
3 139 272 273 
3 270 366 272 
3 366 12 272 
3 364 42 366 
3 345 205 11 
3 358 174 48 
3 396 165 318 
3 397 241 396 
3 42 205 345 
3 42 34 205 
3 359 298 295 
3 173 338 340 
3 121 263 7 
3 291 274 387 
3 388 343 291 
3 135 106 388 
3 271 106 135 
3 271 23 106 
3 31 204 328 
3 367 12 246 
3 12 367 272 
3 364 298 42 
3 165 383 318 
3 396 239 165 
3 241 239 396 
3 241 61 239 
3 397 403 241 
3 42 154 34 
3 298 345 295 
3 173 230 338 
3 274 25 387 
3 343 149 291 
3 388 294 343 
3 23 117 106 
3 204 169 328 
3 204 154 169 
3 31 367 204 
3 12 366 246 
3 366 245 246 
3 366 268 245 
3 383 259 318 
3 165 395 383 
3 239 52 165 
3 61 52 239 
3 61 191 52 
3 241 344 61 
3 403 243 241 
3 397 243 403 
3 154 180 34 
3 274 32 25 
3 343 294 149 
3 23 365 117 
3 154 186 169 
3 383 40 259 
3 395 40 383 
3 165 69 395 
3 52 69 165 
3 52 68 69 
3 191 68 52 
3 191 82 68 
3 61 342 191 
3 344 342 61 
3 241 243 344 
3 32 63 25 
3 365 326 117 
3 69 84 395 
3 68 82 69 
3 82 84 69 
3 32 284 63 
3 365 62 326 
3 62 9 326 
3 29 124 548 
3 124 407 548 
3 407 16 548 
3 16 547 548 
3 547 136 548 
3 16 211 547 
3 547 546 136 
3 211 546 547 
3 211 563 546 
3 563 562 546 
3 426 132 444 
3 444 445 426 
3 132 510 444 
3 426 527 132 
3 445 207 426 
3 444 15 445 
3 510 15 444 
3 510 512 15 
3 132 507 510 
3 527 443 132 
3 426 207 527 
3 207 530 527 
3 445 553 207 
3 15 234 445 
3 512 234 15 
3 510 435 512 
3 507 435 510 
3 507 138 435 
3 132 443 507 
3 443 138 507 
3 443 74 138 
3 527 530 443 
3 530 224 443 
3 207 549 530 
3 553 526 207 
3 234 162 445 
3 138 74 435 
3 443 224 74 
3 530 116 224 
3 549 454 530 
3 207 33 549 
3 526 551 207 
3 553 555 526 
3 162 436 445 
3 234 436 162 
3 116 528 224 
3 530 454 116 
3 454 466 116 
3 549 466 454 
3 549 17 466 
3 33 469 549 
3 207 551 33 
3 551 471 33 
3 526 471 551 
3 526 195 471 
3 555 195 526 
3 555 472 195 
3 553 151 555 
3 436 151 445 
3 528 209 224 
3 116 465 528 
3 466 465 116 
3 17 482 466 
3 549 469 17 
3 469 471 17 
3 471 469 33 
3 195 17 471 
3 472 89 195 
3 555 206 472 
3 151 457 555 
3 553 195 151 
3 151 532 445 
3 436 457 151 
3 436 81 457 
3 17 38 482 
3 472 155 89 
3 206 155 472 
3 206 558 155 
3 555 556 206 
3 457 556 555 
3 457 206 556 
3 457 81 206 
3 81 558 206 
3 81 560 558 
3 532 512 445 
3 38 499 482 
3 155 474 89 
3 558 560 155 
3 560 474 155 
3 560 561 474 
3 81 107 560 
3 38 502 499 
3 474 487 89 
3 561 65 474 
3 560 107 561 
3 502 300 499 
3 487 504 89 
3 474 65 487 
3 65 489 487 
3 561 219 65 
3 300 421 499 
3 502 446 300 
3 504 420 89 
3 487 168 504 
3 489 505 487 
3 65 219 489 
3 219 476 489 
3 421 430 499 
3 502 89 446 
3 420 446 89 
3 420 450 446 
3 168 550 504 
3 487 505 168 
3 505 123 168 
3 489 506 505 
3 476 73 489 
3 430 152 499 
3 421 26 430 
3 450 423 446 
3 168 123 550 
3 505 552 123 
3 506 552 505 
3 506 533 552 
3 489 508 506 
3 73 508 489 
3 73 511 508 
3 476 477 73 
3 152 482 499 
3 430 462 152 
3 26 462 430 
3 26 406 462 
3 423 137 446 
3 450 137 423 
3 450 26 137 
3 552 554 123 
3 533 554 552 
3 533 128 554 
3 506 508 533 
3 508 511 533 
3 511 535 533 
3 73 176 511 
3 477 176 73 
3 477 55 176 
3 476 78 477 
3 462 450 152 
3 137 300 446 
3 137 400 300 
3 26 400 137 
3 26 421 400 
3 421 300 400 
3 554 115 123 
3 128 115 554 
3 128 433 115 
3 533 535 128 
3 535 537 128 
3 511 87 535 
3 176 87 511 
3 176 55 87 
3 55 514 87 
3 477 492 55 
3 78 492 477 
3 78 96 492 
3 450 38 152 
3 462 406 450 
3 433 470 115 
3 128 559 433 
3 537 557 128 
3 535 87 537 
3 87 538 537 
3 514 538 87 
3 514 172 538 
3 55 492 514 
3 492 493 514 
3 96 493 492 
3 96 520 493 
3 450 502 38 
3 450 420 502 
3 433 140 470 
3 559 140 433 
3 128 438 559 
3 557 438 128 
3 557 537 438 
3 537 538 438 
3 538 559 438 
3 538 172 559 
3 172 178 559 
3 514 185 172 
3 493 516 514 
3 520 518 493 
3 140 35 470 
3 178 86 559 
3 172 86 178 
3 172 185 86 
3 185 539 86 
3 514 539 185 
3 514 516 539 
3 516 518 539 
3 518 516 493 
3 520 519 518 
3 539 108 86 
3 518 540 539 
3 519 541 518 
3 520 544 519 
3 108 275 86 
3 539 540 108 
3 540 275 108 
3 540 541 275 
3 541 540 518 
3 519 542 541 
3 544 542 519 
3 544 368 542 
3 541 153 275 
3 542 182 541 
3 368 562 542 
3 541 182 153 
3 182 94 153 
3 542 94 182 
3 562 94 542 
3 22 479 101 
3 101 93 22 
3 479 480 101 
3 93 437 22 
3 479 524 480 
3 437 460 22 
3 524 497 480 
3 460 122 22 
3 437 434 460 
3 497 498 480 
3 524 498 497 
3 524 525 498 
3 122 515 22 
3 460 459 122 
3 434 459 460 
3 434 166 459 
3 515 494 22 
3 122 475 515 
3 459 475 122 
3 459 458 475 
3 166 158 459 
3 475 187 515 
3 458 187 475 
3 458 513 187 
3 459 158 458 
3 158 513 458 
3 158 67 513 
3 166 202 158 
3 67 473 513 
3 158 202 67 
3 202 129 67 
3 67 129 473 
3 129 456 473 
3 202 456 129 
3 202 536 456 
3 456 488 473 
3 536 488 456 
3 536 45 488 
3 536 534 45 
3 534 196 45 
3 534 200 196 
3 200 223 196 
3 534 531 200 
3 200 531 223 
3 531 103 223 
